<svg width="28" height="27" viewBox="0 0 28 27" fill="none" xmlns="http://www.w3.org/2000/svg">
<g clip-path="url(#clip0_22_208)">
<path d="M3.71999 3.57153L24.5153 3.57153C24.8217 3.57153 25.1155 3.68442 25.3322 3.88535C25.5489 4.08628 25.6706 4.3588 25.6706 4.64296V21.7858C25.6706 22.07 25.5489 22.3425 25.3322 22.5434C25.1155 22.7444 24.8217 22.8572 24.5153 22.8572H3.71999C3.41359 22.8572 3.11973 22.7444 2.90308 22.5434C2.68642 22.3425 2.5647 22.07 2.5647 21.7858L2.5647 4.64296C2.5647 4.3588 2.68642 4.08628 2.90308 3.88535C3.11973 3.68442 3.41359 3.57153 3.71999 3.57153ZM23.36 8.11224L14.2008 15.7194L4.87529 8.08867L4.87529 20.7144H23.36V8.11224ZM5.46564 5.71439L14.1881 12.8522L22.7847 5.71439L5.46564 5.71439Z" fill="white"/>
</g>
<defs>
<clipPath id="clip0_22_208">
<rect width="27.7271" height="25.7143" fill="white" transform="translate(0.254395 0.357239)"/>
</clipPath>
</defs>
</svg>
