<svg width="362" height="47" viewBox="0 0 362 47" fill="none" xmlns="http://www.w3.org/2000/svg">
<line x1="2" y1="15.5" x2="2" y2="31.5" stroke="url(#paint0_linear_22_230)" stroke-width="4" stroke-linecap="round"/>
<line x1="12" y1="17.5" x2="12" y2="29.5" stroke="url(#paint1_linear_22_230)" stroke-width="4" stroke-linecap="round"/>
<line x1="22" y1="19.5" x2="22" y2="27.5" stroke="url(#paint2_linear_22_230)" stroke-width="4" stroke-linecap="round"/>
<path d="M55.1953 21.8828V23.6797C55.1953 25.8151 54.9284 27.7292 54.3945 29.4219C53.8607 31.1146 53.0924 32.5534 52.0898 33.7383C51.0872 34.9232 49.8828 35.8281 48.4766 36.4531C47.0833 37.0781 45.5208 37.3906 43.7891 37.3906C42.1094 37.3906 40.5664 37.0781 39.1602 36.4531C37.7669 35.8281 36.556 34.9232 35.5273 33.7383C34.5117 32.5534 33.724 31.1146 33.1641 29.4219C32.6042 27.7292 32.3242 25.8151 32.3242 23.6797V21.8828C32.3242 19.7474 32.5977 17.8398 33.1445 16.1602C33.7044 14.4674 34.4922 13.0286 35.5078 11.8438C36.5234 10.6458 37.7279 9.73438 39.1211 9.10938C40.5273 8.48438 42.0703 8.17188 43.75 8.17188C45.4818 8.17188 47.0443 8.48438 48.4375 9.10938C49.8438 9.73438 51.0482 10.6458 52.0508 11.8438C53.0664 13.0286 53.8411 14.4674 54.375 16.1602C54.9219 17.8398 55.1953 19.7474 55.1953 21.8828ZM51.4648 23.6797V21.8438C51.4648 20.151 51.2891 18.6536 50.9375 17.3516C50.599 16.0495 50.0977 14.9557 49.4336 14.0703C48.7695 13.1849 47.9557 12.5143 46.9922 12.0586C46.0417 11.6029 44.9609 11.375 43.75 11.375C42.5781 11.375 41.5169 11.6029 40.5664 12.0586C39.6289 12.5143 38.8216 13.1849 38.1445 14.0703C37.4805 14.9557 36.9661 16.0495 36.6016 17.3516C36.237 18.6536 36.0547 20.151 36.0547 21.8438V23.6797C36.0547 25.3854 36.237 26.8958 36.6016 28.2109C36.9661 29.513 37.487 30.6133 38.1641 31.5117C38.8542 32.3971 39.668 33.0677 40.6055 33.5234C41.556 33.9792 42.6172 34.207 43.7891 34.207C45.013 34.207 46.1003 33.9792 47.0508 33.5234C48.0013 33.0677 48.8021 32.3971 49.4531 31.5117C50.1172 30.6133 50.6185 29.513 50.957 28.2109C51.2956 26.8958 51.4648 25.3854 51.4648 23.6797ZM63.9062 19.9297V45.125H60.2734V15.8672H63.5938L63.9062 19.9297ZM78.1445 26.2578V26.668C78.1445 28.2044 77.9622 29.6302 77.5977 30.9453C77.2331 32.2474 76.6992 33.3802 75.9961 34.3438C75.306 35.3073 74.4531 36.056 73.4375 36.5898C72.4219 37.1237 71.2565 37.3906 69.9414 37.3906C68.6003 37.3906 67.4154 37.1693 66.3867 36.7266C65.3581 36.2839 64.4857 35.6393 63.7695 34.793C63.0534 33.9466 62.4805 32.931 62.0508 31.7461C61.6341 30.5612 61.3477 29.2266 61.1914 27.7422V25.5547C61.3477 23.9922 61.6406 22.5924 62.0703 21.3555C62.5 20.1185 63.0664 19.0638 63.7695 18.1914C64.4857 17.306 65.3516 16.6354 66.3672 16.1797C67.3828 15.7109 68.5547 15.4766 69.8828 15.4766C71.2109 15.4766 72.3893 15.737 73.418 16.2578C74.4466 16.7656 75.3125 17.4948 76.0156 18.4453C76.7188 19.3958 77.2461 20.5352 77.5977 21.8633C77.9622 23.1784 78.1445 24.6432 78.1445 26.2578ZM74.5117 26.668V26.2578C74.5117 25.2031 74.401 24.2135 74.1797 23.2891C73.9583 22.3516 73.6133 21.5312 73.1445 20.8281C72.6888 20.112 72.1029 19.5521 71.3867 19.1484C70.6706 18.7318 69.8177 18.5234 68.8281 18.5234C67.9167 18.5234 67.1224 18.6797 66.4453 18.9922C65.7812 19.3047 65.2148 19.7279 64.7461 20.2617C64.2773 20.7826 63.8932 21.3815 63.5938 22.0586C63.3073 22.7227 63.0924 23.4128 62.9492 24.1289V29.1875C63.2096 30.099 63.5742 30.9583 64.043 31.7656C64.5117 32.5599 65.1367 33.2044 65.918 33.6992C66.6992 34.181 67.6823 34.4219 68.8672 34.4219C69.8438 34.4219 70.6836 34.2201 71.3867 33.8164C72.1029 33.3997 72.6888 32.8333 73.1445 32.1172C73.6133 31.401 73.9583 30.5807 74.1797 29.6562C74.401 28.7188 74.5117 27.7227 74.5117 26.668ZM91.5234 37.3906C90.0521 37.3906 88.7174 37.1432 87.5195 36.6484C86.3346 36.1406 85.3125 35.431 84.4531 34.5195C83.6068 33.6081 82.9557 32.5273 82.5 31.2773C82.0443 30.0273 81.8164 28.6602 81.8164 27.1758V26.3555C81.8164 24.6367 82.0703 23.1068 82.5781 21.7656C83.0859 20.4115 83.776 19.2656 84.6484 18.3281C85.5208 17.3906 86.5104 16.681 87.6172 16.1992C88.724 15.7174 89.8698 15.4766 91.0547 15.4766C92.5651 15.4766 93.8672 15.737 94.9609 16.2578C96.0677 16.7786 96.9727 17.5078 97.6758 18.4453C98.3789 19.3698 98.8997 20.4635 99.2383 21.7266C99.5768 22.9766 99.7461 24.3438 99.7461 25.8281V27.4492H83.9648V24.5H96.1328V24.2266C96.0807 23.2891 95.8854 22.3776 95.5469 21.4922C95.2214 20.6068 94.7005 19.8776 93.9844 19.3047C93.2682 18.7318 92.2917 18.4453 91.0547 18.4453C90.2344 18.4453 89.4792 18.6211 88.7891 18.9727C88.099 19.3112 87.5065 19.819 87.0117 20.4961C86.5169 21.1732 86.1328 22 85.8594 22.9766C85.5859 23.9531 85.4492 25.0794 85.4492 26.3555V27.1758C85.4492 28.1784 85.5859 29.1224 85.8594 30.0078C86.1458 30.8802 86.556 31.6484 87.0898 32.3125C87.6367 32.9766 88.2943 33.4974 89.0625 33.875C89.8438 34.2526 90.7292 34.4414 91.7188 34.4414C92.9948 34.4414 94.0755 34.181 94.9609 33.6602C95.8464 33.1393 96.6211 32.4427 97.2852 31.5703L99.4727 33.3086C99.0169 33.9987 98.4375 34.6562 97.7344 35.2812C97.0312 35.9062 96.1654 36.4141 95.1367 36.8047C94.1211 37.1953 92.9167 37.3906 91.5234 37.3906ZM107.578 19.1875V37H103.965V15.8672H107.48L107.578 19.1875ZM114.18 15.75L114.16 19.1094C113.861 19.0443 113.574 19.0052 113.301 18.9922C113.04 18.9661 112.741 18.9531 112.402 18.9531C111.569 18.9531 110.833 19.0833 110.195 19.3438C109.557 19.6042 109.017 19.9688 108.574 20.4375C108.132 20.9062 107.78 21.4661 107.52 22.1172C107.272 22.7552 107.109 23.4583 107.031 24.2266L106.016 24.8125C106.016 23.5365 106.139 22.3385 106.387 21.2188C106.647 20.099 107.044 19.1094 107.578 18.25C108.112 17.3776 108.789 16.7005 109.609 16.2188C110.443 15.724 111.432 15.4766 112.578 15.4766C112.839 15.4766 113.138 15.5091 113.477 15.5742C113.815 15.6263 114.049 15.6849 114.18 15.75ZM129.199 33.3867V22.5078C129.199 21.6745 129.03 20.9518 128.691 20.3398C128.366 19.7148 127.871 19.2331 127.207 18.8945C126.543 18.556 125.723 18.3867 124.746 18.3867C123.835 18.3867 123.034 18.543 122.344 18.8555C121.667 19.168 121.133 19.5781 120.742 20.0859C120.365 20.5938 120.176 21.1406 120.176 21.7266H116.562C116.562 20.9714 116.758 20.2227 117.148 19.4805C117.539 18.7383 118.099 18.0677 118.828 17.4688C119.57 16.8568 120.456 16.375 121.484 16.0234C122.526 15.6589 123.685 15.4766 124.961 15.4766C126.497 15.4766 127.852 15.737 129.023 16.2578C130.208 16.7786 131.133 17.5664 131.797 18.6211C132.474 19.6628 132.812 20.9714 132.812 22.5469V32.3906C132.812 33.0938 132.871 33.8424 132.988 34.6367C133.118 35.431 133.307 36.1146 133.555 36.6875V37H129.785C129.603 36.5833 129.46 36.0299 129.355 35.3398C129.251 34.6367 129.199 33.9857 129.199 33.3867ZM129.824 24.1875L129.863 26.7266H126.211C125.182 26.7266 124.264 26.8112 123.457 26.9805C122.65 27.1367 121.973 27.3776 121.426 27.7031C120.879 28.0286 120.462 28.4388 120.176 28.9336C119.889 29.4154 119.746 29.9818 119.746 30.6328C119.746 31.2969 119.896 31.9023 120.195 32.4492C120.495 32.9961 120.944 33.4323 121.543 33.7578C122.155 34.0703 122.904 34.2266 123.789 34.2266C124.896 34.2266 125.872 33.9922 126.719 33.5234C127.565 33.0547 128.236 32.4818 128.73 31.8047C129.238 31.1276 129.512 30.4701 129.551 29.832L131.094 31.5703C131.003 32.1172 130.755 32.7227 130.352 33.3867C129.948 34.0508 129.408 34.6888 128.73 35.3008C128.066 35.8997 127.272 36.401 126.348 36.8047C125.436 37.1953 124.408 37.3906 123.262 37.3906C121.829 37.3906 120.573 37.1107 119.492 36.5508C118.424 35.9909 117.591 35.2422 116.992 34.3047C116.406 33.3542 116.113 32.293 116.113 31.1211C116.113 29.9883 116.335 28.9922 116.777 28.1328C117.22 27.2604 117.858 26.5378 118.691 25.9648C119.525 25.3789 120.527 24.9362 121.699 24.6367C122.871 24.3372 124.18 24.1875 125.625 24.1875H129.824ZM146.953 34.4219C147.812 34.4219 148.607 34.2461 149.336 33.8945C150.065 33.543 150.664 33.0612 151.133 32.4492C151.602 31.8242 151.868 31.1146 151.934 30.3203H155.371C155.306 31.5703 154.883 32.7357 154.102 33.8164C153.333 34.8841 152.324 35.75 151.074 36.4141C149.824 37.0651 148.451 37.3906 146.953 37.3906C145.365 37.3906 143.978 37.1107 142.793 36.5508C141.621 35.9909 140.645 35.2227 139.863 34.2461C139.095 33.2695 138.516 32.1497 138.125 30.8867C137.747 29.6107 137.559 28.263 137.559 26.8438V26.0234C137.559 24.6042 137.747 23.263 138.125 22C138.516 20.724 139.095 19.5977 139.863 18.6211C140.645 17.6445 141.621 16.8763 142.793 16.3164C143.978 15.7565 145.365 15.4766 146.953 15.4766C148.607 15.4766 150.052 15.8151 151.289 16.4922C152.526 17.1562 153.496 18.0677 154.199 19.2266C154.915 20.3724 155.306 21.6745 155.371 23.1328H151.934C151.868 22.2604 151.621 21.4727 151.191 20.7695C150.775 20.0664 150.202 19.5065 149.473 19.0898C148.757 18.6602 147.917 18.4453 146.953 18.4453C145.846 18.4453 144.915 18.6667 144.16 19.1094C143.418 19.5391 142.826 20.125 142.383 20.8672C141.953 21.5964 141.641 22.4102 141.445 23.3086C141.263 24.194 141.172 25.099 141.172 26.0234V26.8438C141.172 27.7682 141.263 28.6797 141.445 29.5781C141.628 30.4766 141.934 31.2904 142.363 32.0195C142.806 32.7487 143.398 33.3346 144.141 33.7773C144.896 34.207 145.833 34.4219 146.953 34.4219ZM144.961 37.1953H147.559L147.324 38.2305C148.079 38.3607 148.763 38.6732 149.375 39.168C150 39.6628 150.312 40.4766 150.312 41.6094C150.312 42.2214 150.182 42.7747 149.922 43.2695C149.674 43.7773 149.303 44.207 148.809 44.5586C148.314 44.9232 147.695 45.2031 146.953 45.3984C146.224 45.5938 145.371 45.6914 144.395 45.6914L144.258 43.6016C144.857 43.6016 145.397 43.5365 145.879 43.4062C146.374 43.276 146.764 43.0677 147.051 42.7812C147.35 42.4948 147.5 42.1237 147.5 41.668C147.5 41.2383 147.389 40.8997 147.168 40.6523C146.947 40.4049 146.602 40.2161 146.133 40.0859C145.677 39.9688 145.085 39.8841 144.355 39.832L144.961 37.1953ZM171.895 33.3867V22.5078C171.895 21.6745 171.725 20.9518 171.387 20.3398C171.061 19.7148 170.566 19.2331 169.902 18.8945C169.238 18.556 168.418 18.3867 167.441 18.3867C166.53 18.3867 165.729 18.543 165.039 18.8555C164.362 19.168 163.828 19.5781 163.438 20.0859C163.06 20.5938 162.871 21.1406 162.871 21.7266H159.258C159.258 20.9714 159.453 20.2227 159.844 19.4805C160.234 18.7383 160.794 18.0677 161.523 17.4688C162.266 16.8568 163.151 16.375 164.18 16.0234C165.221 15.6589 166.38 15.4766 167.656 15.4766C169.193 15.4766 170.547 15.737 171.719 16.2578C172.904 16.7786 173.828 17.5664 174.492 18.6211C175.169 19.6628 175.508 20.9714 175.508 22.5469V32.3906C175.508 33.0938 175.566 33.8424 175.684 34.6367C175.814 35.431 176.003 36.1146 176.25 36.6875V37H172.48C172.298 36.5833 172.155 36.0299 172.051 35.3398C171.947 34.6367 171.895 33.9857 171.895 33.3867ZM172.52 24.1875L172.559 26.7266H168.906C167.878 26.7266 166.96 26.8112 166.152 26.9805C165.345 27.1367 164.668 27.3776 164.121 27.7031C163.574 28.0286 163.158 28.4388 162.871 28.9336C162.585 29.4154 162.441 29.9818 162.441 30.6328C162.441 31.2969 162.591 31.9023 162.891 32.4492C163.19 32.9961 163.639 33.4323 164.238 33.7578C164.85 34.0703 165.599 34.2266 166.484 34.2266C167.591 34.2266 168.568 33.9922 169.414 33.5234C170.26 33.0547 170.931 32.4818 171.426 31.8047C171.934 31.1276 172.207 30.4701 172.246 29.832L173.789 31.5703C173.698 32.1172 173.451 32.7227 173.047 33.3867C172.643 34.0508 172.103 34.6888 171.426 35.3008C170.762 35.8997 169.967 36.401 169.043 36.8047C168.132 37.1953 167.103 37.3906 165.957 37.3906C164.525 37.3906 163.268 37.1107 162.188 36.5508C161.12 35.9909 160.286 35.2422 159.688 34.3047C159.102 33.3542 158.809 32.293 158.809 31.1211C158.809 29.9883 159.03 28.9922 159.473 28.1328C159.915 27.2604 160.553 26.5378 161.387 25.9648C162.22 25.3789 163.223 24.9362 164.395 24.6367C165.566 24.3372 166.875 24.1875 168.32 24.1875H172.52ZM172.539 7.39062L174.98 7.60547C174.98 8.55599 174.792 9.38932 174.414 10.1055C174.036 10.8216 173.529 11.375 172.891 11.7656C172.266 12.1562 171.556 12.3516 170.762 12.3516C170.098 12.3516 169.551 12.2604 169.121 12.0781C168.691 11.8828 168.307 11.668 167.969 11.4336C167.63 11.1862 167.272 10.9714 166.895 10.7891C166.53 10.5938 166.074 10.4961 165.527 10.4961C164.98 10.4961 164.518 10.7044 164.141 11.1211C163.776 11.5378 163.594 12.0521 163.594 12.6641L161.152 12.5469C161.152 11.5964 161.335 10.763 161.699 10.0469C162.077 9.31771 162.585 8.7513 163.223 8.34766C163.861 7.93099 164.57 7.72266 165.352 7.72266C165.911 7.72266 166.4 7.82031 166.816 8.01562C167.246 8.19792 167.65 8.41276 168.027 8.66016C168.405 8.89453 168.796 9.10938 169.199 9.30469C169.603 9.48698 170.065 9.57812 170.586 9.57812C171.133 9.57812 171.595 9.36979 171.973 8.95312C172.35 8.52344 172.539 8.0026 172.539 7.39062ZM180.234 26.668V26.2188C180.234 24.6953 180.456 23.2826 180.898 21.9805C181.341 20.6654 181.979 19.526 182.812 18.5625C183.646 17.5859 184.655 16.8307 185.84 16.2969C187.025 15.75 188.353 15.4766 189.824 15.4766C191.309 15.4766 192.643 15.75 193.828 16.2969C195.026 16.8307 196.042 17.5859 196.875 18.5625C197.721 19.526 198.366 20.6654 198.809 21.9805C199.251 23.2826 199.473 24.6953 199.473 26.2188V26.668C199.473 28.1914 199.251 29.6042 198.809 30.9062C198.366 32.2083 197.721 33.3477 196.875 34.3242C196.042 35.2878 195.033 36.043 193.848 36.5898C192.676 37.1237 191.348 37.3906 189.863 37.3906C188.379 37.3906 187.044 37.1237 185.859 36.5898C184.674 36.043 183.659 35.2878 182.812 34.3242C181.979 33.3477 181.341 32.2083 180.898 30.9062C180.456 29.6042 180.234 28.1914 180.234 26.668ZM183.848 26.2188V26.668C183.848 27.7227 183.971 28.7188 184.219 29.6562C184.466 30.5807 184.837 31.401 185.332 32.1172C185.84 32.8333 186.471 33.3997 187.227 33.8164C187.982 34.2201 188.861 34.4219 189.863 34.4219C190.853 34.4219 191.719 34.2201 192.461 33.8164C193.216 33.3997 193.841 32.8333 194.336 32.1172C194.831 31.401 195.202 30.5807 195.449 29.6562C195.71 28.7188 195.84 27.7227 195.84 26.668V26.2188C195.84 25.1771 195.71 24.194 195.449 23.2695C195.202 22.332 194.824 21.5052 194.316 20.7891C193.822 20.0599 193.197 19.487 192.441 19.0703C191.699 18.6536 190.827 18.4453 189.824 18.4453C188.835 18.4453 187.962 18.6536 187.207 19.0703C186.465 19.487 185.84 20.0599 185.332 20.7891C184.837 21.5052 184.466 22.332 184.219 23.2695C183.971 24.194 183.848 25.1771 183.848 26.2188ZM231.719 33.9336V37H217.5V33.9336H231.719ZM218.242 8.5625V37H214.473V8.5625H218.242ZM244.258 37.3906C242.786 37.3906 241.452 37.1432 240.254 36.6484C239.069 36.1406 238.047 35.431 237.188 34.5195C236.341 33.6081 235.69 32.5273 235.234 31.2773C234.779 30.0273 234.551 28.6602 234.551 27.1758V26.3555C234.551 24.6367 234.805 23.1068 235.312 21.7656C235.82 20.4115 236.51 19.2656 237.383 18.3281C238.255 17.3906 239.245 16.681 240.352 16.1992C241.458 15.7174 242.604 15.4766 243.789 15.4766C245.299 15.4766 246.602 15.737 247.695 16.2578C248.802 16.7786 249.707 17.5078 250.41 18.4453C251.113 19.3698 251.634 20.4635 251.973 21.7266C252.311 22.9766 252.48 24.3438 252.48 25.8281V27.4492H236.699V24.5H248.867V24.2266C248.815 23.2891 248.62 22.3776 248.281 21.4922C247.956 20.6068 247.435 19.8776 246.719 19.3047C246.003 18.7318 245.026 18.4453 243.789 18.4453C242.969 18.4453 242.214 18.6211 241.523 18.9727C240.833 19.3112 240.241 19.819 239.746 20.4961C239.251 21.1732 238.867 22 238.594 22.9766C238.32 23.9531 238.184 25.0794 238.184 26.3555V27.1758C238.184 28.1784 238.32 29.1224 238.594 30.0078C238.88 30.8802 239.29 31.6484 239.824 32.3125C240.371 32.9766 241.029 33.4974 241.797 33.875C242.578 34.2526 243.464 34.4414 244.453 34.4414C245.729 34.4414 246.81 34.181 247.695 33.6602C248.581 33.1393 249.355 32.4427 250.02 31.5703L252.207 33.3086C251.751 33.9987 251.172 34.6562 250.469 35.2812C249.766 35.9062 248.9 36.4141 247.871 36.8047C246.855 37.1953 245.651 37.3906 244.258 37.3906ZM260.625 15.8672V37H256.992V15.8672H260.625ZM256.719 10.2617C256.719 9.67578 256.895 9.18099 257.246 8.77734C257.611 8.3737 258.145 8.17188 258.848 8.17188C259.538 8.17188 260.065 8.3737 260.43 8.77734C260.807 9.18099 260.996 9.67578 260.996 10.2617C260.996 10.8216 260.807 11.3034 260.43 11.707C260.065 12.0977 259.538 12.293 258.848 12.293C258.145 12.293 257.611 12.0977 257.246 11.707C256.895 11.3034 256.719 10.8216 256.719 10.2617ZM292.051 29.8125C292.051 29.1484 291.947 28.5625 291.738 28.0547C291.543 27.5339 291.191 27.0651 290.684 26.6484C290.189 26.2318 289.499 25.8346 288.613 25.457C287.741 25.0794 286.634 24.6953 285.293 24.3047C283.887 23.888 282.617 23.4258 281.484 22.918C280.352 22.3971 279.382 21.8047 278.574 21.1406C277.767 20.4766 277.148 19.7148 276.719 18.8555C276.289 17.9961 276.074 17.013 276.074 15.9062C276.074 14.7995 276.302 13.7773 276.758 12.8398C277.214 11.9023 277.865 11.0885 278.711 10.3984C279.57 9.69531 280.592 9.14844 281.777 8.75781C282.962 8.36719 284.284 8.17188 285.742 8.17188C287.878 8.17188 289.688 8.58203 291.172 9.40234C292.669 10.2096 293.809 11.2708 294.59 12.5859C295.371 13.888 295.762 15.2812 295.762 16.7656H292.012C292.012 15.6979 291.784 14.7539 291.328 13.9336C290.872 13.1003 290.182 12.4492 289.258 11.9805C288.333 11.4987 287.161 11.2578 285.742 11.2578C284.401 11.2578 283.294 11.4596 282.422 11.8633C281.549 12.2669 280.898 12.8138 280.469 13.5039C280.052 14.194 279.844 14.9818 279.844 15.8672C279.844 16.4661 279.967 17.013 280.215 17.5078C280.475 17.9896 280.872 18.4388 281.406 18.8555C281.953 19.2721 282.643 19.6562 283.477 20.0078C284.323 20.3594 285.332 20.6979 286.504 21.0234C288.118 21.4792 289.512 21.987 290.684 22.5469C291.855 23.1068 292.819 23.7383 293.574 24.4414C294.342 25.1315 294.909 25.9193 295.273 26.8047C295.651 27.6771 295.84 28.6667 295.84 29.7734C295.84 30.9323 295.605 31.9805 295.137 32.918C294.668 33.8555 293.997 34.6562 293.125 35.3203C292.253 35.9844 291.204 36.4987 289.98 36.8633C288.77 37.2148 287.415 37.3906 285.918 37.3906C284.603 37.3906 283.307 37.2083 282.031 36.8438C280.768 36.4792 279.616 35.9323 278.574 35.2031C277.546 34.474 276.719 33.5755 276.094 32.5078C275.482 31.4271 275.176 30.1771 275.176 28.7578H278.926C278.926 29.7344 279.115 30.5742 279.492 31.2773C279.87 31.9674 280.384 32.5404 281.035 32.9961C281.699 33.4518 282.448 33.7904 283.281 34.0117C284.128 34.2201 285.007 34.3242 285.918 34.3242C287.233 34.3242 288.346 34.1419 289.258 33.7773C290.169 33.4128 290.859 32.8919 291.328 32.2148C291.81 31.5378 292.051 30.737 292.051 29.8125ZM308.867 37.3906C307.396 37.3906 306.061 37.1432 304.863 36.6484C303.678 36.1406 302.656 35.431 301.797 34.5195C300.951 33.6081 300.299 32.5273 299.844 31.2773C299.388 30.0273 299.16 28.6602 299.16 27.1758V26.3555C299.16 24.6367 299.414 23.1068 299.922 21.7656C300.43 20.4115 301.12 19.2656 301.992 18.3281C302.865 17.3906 303.854 16.681 304.961 16.1992C306.068 15.7174 307.214 15.4766 308.398 15.4766C309.909 15.4766 311.211 15.737 312.305 16.2578C313.411 16.7786 314.316 17.5078 315.02 18.4453C315.723 19.3698 316.243 20.4635 316.582 21.7266C316.921 22.9766 317.09 24.3438 317.09 25.8281V27.4492H301.309V24.5H313.477V24.2266C313.424 23.2891 313.229 22.3776 312.891 21.4922C312.565 20.6068 312.044 19.8776 311.328 19.3047C310.612 18.7318 309.635 18.4453 308.398 18.4453C307.578 18.4453 306.823 18.6211 306.133 18.9727C305.443 19.3112 304.85 19.819 304.355 20.4961C303.861 21.1732 303.477 22 303.203 22.9766C302.93 23.9531 302.793 25.0794 302.793 26.3555V27.1758C302.793 28.1784 302.93 29.1224 303.203 30.0078C303.49 30.8802 303.9 31.6484 304.434 32.3125C304.98 32.9766 305.638 33.4974 306.406 33.875C307.188 34.2526 308.073 34.4414 309.062 34.4414C310.339 34.4414 311.419 34.181 312.305 33.6602C313.19 33.1393 313.965 32.4427 314.629 31.5703L316.816 33.3086C316.361 33.9987 315.781 34.6562 315.078 35.2812C314.375 35.9062 313.509 36.4141 312.48 36.8047C311.465 37.1953 310.26 37.3906 308.867 37.3906ZM329.766 34.4219C330.625 34.4219 331.419 34.2461 332.148 33.8945C332.878 33.543 333.477 33.0612 333.945 32.4492C334.414 31.8242 334.681 31.1146 334.746 30.3203H338.184C338.118 31.5703 337.695 32.7357 336.914 33.8164C336.146 34.8841 335.137 35.75 333.887 36.4141C332.637 37.0651 331.263 37.3906 329.766 37.3906C328.177 37.3906 326.79 37.1107 325.605 36.5508C324.434 35.9909 323.457 35.2227 322.676 34.2461C321.908 33.2695 321.328 32.1497 320.938 30.8867C320.56 29.6107 320.371 28.263 320.371 26.8438V26.0234C320.371 24.6042 320.56 23.263 320.938 22C321.328 20.724 321.908 19.5977 322.676 18.6211C323.457 17.6445 324.434 16.8763 325.605 16.3164C326.79 15.7565 328.177 15.4766 329.766 15.4766C331.419 15.4766 332.865 15.8151 334.102 16.4922C335.339 17.1562 336.309 18.0677 337.012 19.2266C337.728 20.3724 338.118 21.6745 338.184 23.1328H334.746C334.681 22.2604 334.434 21.4727 334.004 20.7695C333.587 20.0664 333.014 19.5065 332.285 19.0898C331.569 18.6602 330.729 18.4453 329.766 18.4453C328.659 18.4453 327.728 18.6667 326.973 19.1094C326.23 19.5391 325.638 20.125 325.195 20.8672C324.766 21.5964 324.453 22.4102 324.258 23.3086C324.076 24.194 323.984 25.099 323.984 26.0234V26.8438C323.984 27.7682 324.076 28.6797 324.258 29.5781C324.44 30.4766 324.746 31.2904 325.176 32.0195C325.618 32.7487 326.211 33.3346 326.953 33.7773C327.708 34.207 328.646 34.4219 329.766 34.4219ZM354.707 33.3867V22.5078C354.707 21.6745 354.538 20.9518 354.199 20.3398C353.874 19.7148 353.379 19.2331 352.715 18.8945C352.051 18.556 351.23 18.3867 350.254 18.3867C349.342 18.3867 348.542 18.543 347.852 18.8555C347.174 19.168 346.641 19.5781 346.25 20.0859C345.872 20.5938 345.684 21.1406 345.684 21.7266H342.07C342.07 20.9714 342.266 20.2227 342.656 19.4805C343.047 18.7383 343.607 18.0677 344.336 17.4688C345.078 16.8568 345.964 16.375 346.992 16.0234C348.034 15.6589 349.193 15.4766 350.469 15.4766C352.005 15.4766 353.359 15.737 354.531 16.2578C355.716 16.7786 356.641 17.5664 357.305 18.6211C357.982 19.6628 358.32 20.9714 358.32 22.5469V32.3906C358.32 33.0938 358.379 33.8424 358.496 34.6367C358.626 35.431 358.815 36.1146 359.062 36.6875V37H355.293C355.111 36.5833 354.967 36.0299 354.863 35.3398C354.759 34.6367 354.707 33.9857 354.707 33.3867ZM355.332 24.1875L355.371 26.7266H351.719C350.69 26.7266 349.772 26.8112 348.965 26.9805C348.158 27.1367 347.48 27.3776 346.934 27.7031C346.387 28.0286 345.97 28.4388 345.684 28.9336C345.397 29.4154 345.254 29.9818 345.254 30.6328C345.254 31.2969 345.404 31.9023 345.703 32.4492C346.003 32.9961 346.452 33.4323 347.051 33.7578C347.663 34.0703 348.411 34.2266 349.297 34.2266C350.404 34.2266 351.38 33.9922 352.227 33.5234C353.073 33.0547 353.743 32.4818 354.238 31.8047C354.746 31.1276 355.02 30.4701 355.059 29.832L356.602 31.5703C356.51 32.1172 356.263 32.7227 355.859 33.3867C355.456 34.0508 354.915 34.6888 354.238 35.3008C353.574 35.8997 352.78 36.401 351.855 36.8047C350.944 37.1953 349.915 37.3906 348.77 37.3906C347.337 37.3906 346.081 37.1107 345 36.5508C343.932 35.9909 343.099 35.2422 342.5 34.3047C341.914 33.3542 341.621 32.293 341.621 31.1211C341.621 29.9883 341.842 28.9922 342.285 28.1328C342.728 27.2604 343.366 26.5378 344.199 25.9648C345.033 25.3789 346.035 24.9362 347.207 24.6367C348.379 24.3372 349.688 24.1875 351.133 24.1875H355.332Z" fill="#1D1B82"/>
<defs>
<linearGradient id="paint0_linear_22_230" x1="-0.5" y1="13.5" x2="-0.5" y2="33.5" gradientUnits="userSpaceOnUse">
<stop stop-color="#EC008C"/>
<stop offset="1" stop-color="#FC6767"/>
</linearGradient>
<linearGradient id="paint1_linear_22_230" x1="9.5" y1="15.5" x2="9.5" y2="31.5" gradientUnits="userSpaceOnUse">
<stop stop-color="#E65C00"/>
<stop offset="1" stop-color="#F9D423"/>
</linearGradient>
<linearGradient id="paint2_linear_22_230" x1="19.5" y1="17.5" x2="19.5" y2="29.5" gradientUnits="userSpaceOnUse">
<stop stop-color="#00D2FF"/>
<stop offset="1" stop-color="#3A7BD5"/>
</linearGradient>
</defs>
</svg>
