<svg width="29" height="27" viewBox="0 0 29 27" fill="none" xmlns="http://www.w3.org/2000/svg">
<g clip-path="url(#clip0_22_217)">
<path d="M22.3742 11.0714H23.52C23.8239 11.0714 24.1154 11.1843 24.3303 11.3852C24.5452 11.5862 24.6659 11.8587 24.6659 12.1429V22.8571C24.6659 23.1413 24.5452 23.4138 24.3303 23.6147C24.1154 23.8157 23.8239 23.9286 23.52 23.9286H5.18592C4.88201 23.9286 4.59055 23.8157 4.37566 23.6147C4.16077 23.4138 4.04004 23.1413 4.04004 22.8571V12.1429C4.04004 11.8587 4.16077 11.5862 4.37566 11.3852C4.59055 11.1843 4.88201 11.0714 5.18592 11.0714H6.3318V10C6.3318 9.01508 6.53928 8.03981 6.94238 7.12987C7.34548 6.21993 7.93632 5.39314 8.68115 4.6967C9.42599 4.00026 10.3102 3.44781 11.2834 3.0709C12.2566 2.69399 13.2996 2.5 14.353 2.5C15.4063 2.5 16.4494 2.69399 17.4226 3.0709C18.3957 3.44781 19.28 4.00026 20.0248 4.6967C20.7696 5.39314 21.3605 6.21993 21.7636 7.12987C22.1667 8.03981 22.3742 9.01508 22.3742 10V11.0714ZM6.3318 13.2143L6.3318 21.7857H22.3742V13.2143L6.3318 13.2143ZM13.2071 15.3571H15.4989L15.4989 19.6429H13.2071L13.2071 15.3571ZM20.0824 11.0714V10C20.0824 8.5792 19.4788 7.21659 18.4043 6.21193C17.3298 5.20727 15.8725 4.64286 14.353 4.64286C12.8334 4.64286 11.3761 5.20727 10.3017 6.21193C9.2272 7.21659 8.62357 8.5792 8.62357 10V11.0714L20.0824 11.0714Z" fill="white"/>
</g>
<defs>
<clipPath id="clip0_22_217">
<rect width="27.5012" height="25.7143" fill="white" transform="translate(0.602539 0.357178)"/>
</clipPath>
</defs>
</svg>
