<svg width="27" height="25" viewBox="0 0 27 25" fill="none" xmlns="http://www.w3.org/2000/svg">
<path d="M26.8469 23.4788C24.8719 20.191 21.8282 17.8335 18.2762 16.7159C20.0332 15.7088 21.3983 14.1741 22.1618 12.3477C22.9253 10.5213 23.045 8.50399 22.5026 6.60567C21.9602 4.70736 20.7857 3.03296 19.1593 1.83963C17.533 0.646293 15.5447 0 13.5 0C11.4553 0 9.46704 0.646293 7.84069 1.83963C6.21433 3.03296 5.03976 4.70736 4.49736 6.60567C3.95496 8.50399 4.07471 10.5213 4.83823 12.3477C5.60175 14.1741 6.96681 15.7088 8.72379 16.7159C5.17179 17.8322 2.12814 20.1897 0.153073 23.4788C0.0806434 23.5925 0.0326017 23.719 0.0117819 23.8509C-0.0090379 23.9828 -0.00221403 24.1174 0.0318509 24.2467C0.0659158 24.376 0.126532 24.4974 0.210122 24.6038C0.293713 24.7102 0.398585 24.7993 0.51855 24.8661C0.638516 24.9328 0.771145 24.9757 0.908613 24.9923C1.04608 25.0088 1.1856 24.9987 1.31895 24.9625C1.45229 24.9263 1.57675 24.8648 1.685 24.7815C1.79324 24.6983 1.88306 24.595 1.94918 24.4777C4.3924 20.412 8.71082 17.9846 13.5 17.9846C18.2892 17.9846 22.6076 20.412 25.0508 24.4777C25.1169 24.595 25.2068 24.6983 25.315 24.7815C25.4232 24.8648 25.5477 24.9263 25.6811 24.9625C25.8144 24.9987 25.9539 25.0088 26.0914 24.9923C26.2289 24.9757 26.3615 24.9328 26.4815 24.8661C26.6014 24.7993 26.7063 24.7102 26.7899 24.6038C26.8735 24.4974 26.9341 24.376 26.9682 24.2467C27.0022 24.1174 27.009 23.9828 26.9882 23.8509C26.9674 23.719 26.9194 23.5925 26.8469 23.4788ZM6.23778 8.99397C6.23778 7.61095 6.6637 6.25899 7.46168 5.10906C8.25967 3.95912 9.39387 3.06285 10.7209 2.53359C12.0479 2.00433 13.5081 1.86585 14.9168 2.13567C16.3255 2.40548 17.6195 3.07147 18.6352 4.04941C19.6508 5.02735 20.3425 6.27333 20.6227 7.62977C20.9029 8.98622 20.7591 10.3922 20.2094 11.67C19.6598 12.9477 18.7289 14.0398 17.5347 14.8082C16.3404 15.5765 14.9363 15.9866 13.5 15.9866C11.5746 15.9847 9.72859 15.2473 8.36711 13.9363C7.00562 12.6254 6.23984 10.8479 6.23778 8.99397Z" fill="white"/>
</svg>
